<svg xmlns="http://www.w3.org/2000/svg" viewBox="0 0 64 64">
  <defs>
    <linearGradient id="g" x1="0" x2="1" y1="0" y2="1">
      <stop offset="0%" stop-color="#12b3a8"/>
      <stop offset="100%" stop-color="#3ba0ff"/>
    </linearGradient>
  </defs>
  <rect width="64" height="64" rx="12" fill="url(#g)"/>
  <g fill="#fff">
    <path d="M28 18h8a2 2 0 0 1 2 2v8h8a2 2 0 0 1 2 2v8a2 2 0 0 1-2 2h-8v8a2 2 0 0 1-2 2h-8a2 2 0 0 1-2-2v-8h-8a2 2 0 0 1-2-2v-8a2 2 0 0 1 2-2h8v-8a2 2 0 0 1 2-2z" opacity="0.9"/>
    <path d="M32 11c5 0 9 2.1 12 5.5C47 20.9 49 25.7 49 31c0 5.2-2 10-5 13.4-3 3.4-7 5.6-12 5.6s-9-2.2-12-5.6c-3-3.4-5-8.2-5-13.4 0-5.3 2-10.1 5-13.5C23 13.1 27 11 32 11z" opacity="0.15"/>
  </g>
</svg>
